<?xml version="1.0" standalone="no"?>
<!DOCTYPE svg PUBLIC "-//W3C//DTD SVG 20010904//EN"
 "http://www.w3.org/TR/2001/REC-SVG-20010904/DTD/svg10.dtd">
<svg version="1.0" xmlns="http://www.w3.org/2000/svg"
 width="8192.000000pt" height="3984.000000pt" viewBox="0 0 8192.000000 3984.000000"
 preserveAspectRatio="xMidYMid meet">

<g transform="translate(0.000000,3984.000000) scale(0.100000,-0.100000)"
fill="#3c26cc" stroke="none">
<path d="M60970 38614 c-25 -2 -155 -8 -290 -14 -691 -30 -1491 -117 -2217
-240 -4172 -709 -7978 -2820 -10807 -5995 -2072 -2326 -3526 -5118 -4237
-8140 -210 -892 -359 -1853 -434 -2785 -8 -107 -17 -224 -20 -260 -33 -405
-47 -1544 -25 -2010 29 -625 74 -1142 145 -1685 336 -2559 1198 -5013 2535
-7220 1232 -2033 2862 -3835 4765 -5266 2097 -1577 4470 -2683 7010 -3269 507
-117 976 -204 1590 -295 478 -71 1224 -139 1815 -166 304 -13 1625 -6 1860 10
769 54 1179 97 1745 182 3478 521 6739 2021 9411 4330 2054 1775 3709 3986
4817 6436 971 2145 1508 4368 1639 6778 20 375 17 1592 -5 1960 -125 2078
-542 3986 -1274 5835 -1201 3034 -3162 5686 -5718 7735 -2361 1892 -5169 3189
-8130 3754 -821 157 -1610 254 -2491 307 -237 14 -1551 28 -1684 18z m15898
-10144 c-1 -5 -373 -442 -826 -970 l-823 -960 -929 0 c-512 0 -930 3 -930 6 0
4 21 52 46 108 123 268 214 467 289 631 46 99 120 261 165 360 140 305 249
544 318 693 l65 142 1314 0 c850 0 1313 -3 1311 -10z m-26363 -1840 c1429 -83
2828 -620 3964 -1522 1282 -1018 2185 -2469 2530 -4063 43 -198 56 -272 90
-510 69 -485 86 -901 56 -1415 -17 -289 -23 -353 -66 -640 -87 -592 -253
-1173 -496 -1740 -25 -58 -49 -109 -53 -114 -5 -5 -13 11 -19 35 -21 83 -129
404 -175 520 -127 321 -302 666 -507 994 l-68 110 20 88 c92 415 135 929 117
1410 -10 276 -29 463 -74 732 -242 1451 -1037 2763 -2227 3679 -440 337 -908
605 -1418 812 -587 236 -1143 366 -1844 428 -27 3 -162 8 -300 12 -848 23
-1727 -146 -2524 -486 -158 -67 -460 -216 -581 -286 -42 -24 -84 -44 -93 -44
-8 0 -40 42 -75 98 -354 580 -485 798 -489 811 -2 11 29 36 104 81 805 484
1647 793 2548 935 245 39 445 62 640 74 190 12 743 12 940 1z m12365 -3212 l0
-2403 2295 -3 2295 -2 0 2405 0 2405 1595 0 1595 0 0 -6230 0 -6230 -1591 -2
c-875 -2 -1593 -1 -1595 1 -2 2 -4 1129 -4 2503 l0 2498 -2295 0 -2295 0 0
-2500 0 -2500 -1590 0 -1590 0 0 6230 0 6230 1590 0 1590 0 0 -2402z m13400
-3826 c0 -3426 -2 -6231 -4 -6233 -2 -2 -716 -3 -1585 -1 l-1581 2 0 6230 0
6230 1585 0 1585 0 0 -6228z m-26018 5558 c672 -37 1391 -215 2013 -496 491
-222 920 -492 1350 -850 179 -149 535 -507 691 -695 704 -852 1125 -1823 1258
-2905 33 -266 41 -811 17 -1094 -11 -131 -56 -468 -63 -475 -3 -4 -197 254
-252 334 l-36 53 0 297 c0 330 -14 517 -61 843 -68 477 -193 950 -364 1383
-71 181 -239 531 -325 680 -317 546 -711 1005 -1197 1392 -683 543 -1555 922
-2573 1117 -269 51 -332 61 -610 91 -246 27 -661 22 -950 -10 -478 -54 -918
-180 -1278 -365 l-137 -71 135 6 c222 9 396 25 560 51 263 40 461 54 792 54
346 0 561 -15 888 -61 198 -28 558 -98 690 -133 30 -8 114 -30 185 -50 378
-101 819 -271 1182 -455 1187 -600 2004 -1485 2370 -2566 91 -271 157 -569
198 -896 19 -145 33 -699 18 -699 -14 0 -54 45 -218 245 -481 586 -939 1049
-1427 1442 -681 550 -1391 926 -2133 1132 -266 74 -888 179 -1253 211 -693 62
-1123 65 -1687 9 -504 -49 -1026 -175 -1386 -333 -163 -72 -163 -74 -2 -60
542 48 1293 67 1768 45 629 -29 1201 -87 1650 -166 295 -52 355 -64 525 -105
839 -199 1639 -586 2398 -1160 916 -692 1699 -1612 2286 -2688 31 -56 56 -109
56 -116 0 -20 -62 -46 -138 -58 -132 -21 -435 13 -587 66 -194 67 -215 83
-413 321 -360 431 -589 681 -929 1015 -316 312 -476 455 -778 697 -605 484
-1220 840 -1850 1070 -531 193 -1738 426 -2505 483 -80 6 -165 12 -190 15
-184 18 -644 26 -888 16 -538 -23 -872 -67 -1292 -172 -350 -87 -634 -193
-999 -373 -147 -73 -194 -82 -227 -45 -55 61 5 184 267 545 429 592 1006 1006
1789 1284 430 152 1019 272 1560 315 598 48 1242 41 1935 -21 335 -30 924
-106 1270 -164 33 -6 232 -40 443 -75 363 -62 482 -76 482 -57 0 25 -101 92
-272 182 -434 227 -1140 476 -1729 610 -223 51 -265 59 -504 100 -411 69 -767
100 -1171 100 -525 0 -993 -60 -1427 -185 -308 -87 -479 -155 -842 -334 -653
-322 -1207 -522 -1452 -525 -82 -1 -95 2 -114 20 l-21 21 159 83 c700 366
1307 750 1648 1044 238 205 519 379 895 555 400 188 776 314 1255 421 83 19
392 68 530 85 261 33 690 43 1017 25z m-1807 -4104 c178 -53 488 -224 718
-398 296 -224 579 -507 757 -757 444 -627 1066 -1199 1589 -1461 159 -81 372
-155 486 -171 44 -6 95 -13 113 -15 60 -9 36 -29 -55 -47 -139 -28 -228 -36
-378 -37 -276 0 -526 60 -776 186 -322 162 -649 471 -896 846 -70 107 -93 131
-68 71 49 -114 92 -274 120 -449 27 -165 35 -433 23 -732 -12 -320 -7 -377 49
-491 21 -41 69 -121 109 -177 147 -211 227 -361 284 -541 56 -175 64 -231 65
-438 0 -216 -8 -272 -67 -449 -46 -139 -93 -237 -175 -361 -225 -340 -847
-699 -1662 -960 -243 -78 -818 -233 -1021 -276 -137 -28 -342 -35 -455 -16
-177 31 -330 139 -399 279 -63 130 -81 287 -47 416 35 134 103 214 252 295 47
25 113 66 146 90 135 100 207 244 157 315 -22 32 -48 27 -92 -17 -55 -56 -114
-67 -278 -50 -213 20 -433 1 -526 -47 -15 -8 -44 -28 -63 -46 -20 -17 -38 -29
-40 -26 -2 2 16 47 40 98 25 52 45 107 45 121 0 15 -13 52 -29 82 -16 31 -27
58 -23 61 3 3 25 6 48 6 23 0 109 16 191 36 173 43 219 42 378 -5 133 -39 177
-45 267 -32 90 12 169 45 222 91 40 36 76 97 76 130 0 19 -6 20 -98 20 -249 0
-520 69 -722 185 -93 53 -142 69 -188 61 -20 -3 -90 -32 -156 -65 -67 -34
-149 -67 -183 -75 l-63 -14 0 47 c0 25 11 89 24 141 13 52 27 133 30 180 16
201 40 257 131 300 84 40 144 53 224 48 60 -3 75 -8 107 -34 21 -16 47 -47 57
-68 l20 -38 52 6 c28 3 76 14 106 25 146 50 202 98 267 230 36 73 37 78 37
186 0 108 -1 111 -38 183 -55 106 -169 223 -262 267 -136 66 -284 82 -343 38
-59 -44 -15 -81 98 -83 95 -1 221 -74 260 -151 29 -55 26 -120 -6 -158 -38
-46 -76 -48 -191 -12 -229 72 -265 74 -531 35 -200 -29 -411 -36 -480 -16 -49
15 -106 61 -129 106 -22 43 -12 227 22 371 74 323 202 726 376 1190 63 169 69
192 69 276 0 125 -46 243 -124 318 -20 19 -36 38 -36 42 0 4 28 -4 63 -19 55
-24 75 -27 177 -27 130 0 158 10 275 98 144 107 245 143 385 135 159 -9 264
-76 575 -363 98 -91 199 -179 222 -194 85 -56 226 -110 333 -128 111 -18 208
-14 535 22 193 21 371 21 501 -1 l106 -18 19 23 c11 14 19 39 19 62 0 53 -36
78 -188 128 -236 79 -416 171 -862 439 -443 266 -642 363 -875 425 -110 29
-133 32 -270 31 -144 0 -153 -1 -237 -32 -48 -18 -146 -62 -218 -97 -164 -82
-274 -115 -384 -115 -100 0 -162 19 -210 66 -53 51 -79 116 -78 195 1 222 139
428 358 534 114 56 168 62 614 75 223 6 500 18 615 26 216 15 633 63 765 89
106 20 234 13 345 -19z m847 -75 c212 -53 446 -165 703 -336 371 -245 675
-513 1450 -1275 441 -434 697 -647 853 -709 35 -15 41 -28 17 -38 -28 -10
-197 27 -290 64 -358 141 -753 452 -1530 1203 -436 422 -779 722 -1018 889
-109 77 -279 177 -324 192 -42 13 -44 39 -4 39 16 0 80 -13 143 -29z m812 -27
c474 -74 863 -261 1209 -582 159 -148 303 -312 585 -670 156 -198 293 -348
372 -408 64 -49 65 -64 2 -64 -110 0 -266 65 -412 170 -56 40 -170 148 -330
313 -643 659 -786 792 -1030 955 -133 88 -295 176 -430 232 -124 52 -114 46
-105 59 8 14 19 14 139 -5z m2573 -1561 c70 -71 154 -162 185 -203 129 -170
221 -363 261 -550 22 -104 25 -262 16 -870 -3 -247 -1 -295 14 -359 65 -274
166 -452 376 -661 114 -113 299 -260 433 -343 69 -43 91 -75 43 -63 -14 4
-100 43 -192 88 -698 338 -1092 677 -1218 1047 -79 234 -66 459 50 836 47 155
91 317 109 407 21 100 21 311 1 396 -27 114 -100 249 -196 365 -64 77 -6 32
118 -90z m-2373 -935 c244 -460 514 -721 851 -823 44 -13 190 -42 325 -65 285
-46 335 -58 442 -105 156 -69 284 -176 407 -342 80 -107 140 -208 130 -218 -4
-3 -37 10 -75 29 -141 70 -271 91 -666 106 -394 15 -548 38 -729 109 -365 143
-592 477 -704 1034 -30 149 -55 312 -55 354 0 36 30 3 74 -79z m3320 -113 c88
-279 270 -494 514 -607 159 -73 353 -114 697 -148 553 -53 761 -122 938 -309
158 -168 231 -394 243 -756 6 -185 -5 -376 -23 -382 -6 -2 -18 18 -27 49 -8
29 -33 90 -55 135 -153 316 -457 509 -1061 677 -663 185 -881 283 -1069 482
-64 68 -91 106 -131 187 -28 56 -57 134 -65 172 -22 99 -30 321 -16 439 16
138 27 150 55 61z m911 -1836 c502 -83 794 -232 966 -493 54 -81 142 -282 163
-371 4 -16 30 -92 58 -168 l50 -138 -26 -37 c-53 -74 -206 -269 -250 -317
l-46 -50 -51 55 c-58 63 -119 184 -143 280 -9 36 -25 151 -36 257 -35 329 -88
475 -226 622 -83 88 -180 159 -302 220 -89 45 -303 127 -361 139 -19 4 -36 13
-39 20 -5 16 63 10 243 -19z m-1535 -55 c99 -175 239 -259 624 -374 447 -133
624 -225 837 -439 231 -232 374 -513 485 -954 56 -222 51 -241 -30 -137 -71
90 -196 220 -289 298 -185 157 -390 286 -776 487 -400 209 -532 290 -658 408
-119 112 -204 256 -238 407 -27 120 -21 360 9 360 2 0 18 -25 36 -56z m-845
-19 c154 -23 189 -35 193 -67 2 -15 -7 -91 -19 -170 -43 -283 -37 -572 17
-868 76 -411 73 -522 -19 -780 -229 -639 -500 -1174 -788 -1550 -172 -225
-407 -462 -471 -474 -79 -14 -297 -38 -468 -51 -188 -14 -1071 -17 -1085 -4
-3 4 55 67 131 140 355 347 610 764 854 1394 135 349 240 704 415 1405 120
477 189 700 252 807 65 112 191 179 407 218 103 19 454 19 581 0z m1040 -1322
c166 -94 339 -198 383 -232 25 -18 49 -98 79 -261 25 -135 24 -605 -1 -810
-30 -252 -55 -403 -68 -416 -51 -49 -609 -320 -878 -427 -270 -107 -586 -215
-597 -203 -3 3 7 25 22 48 75 113 226 383 315 563 281 569 460 1156 531 1743
10 87 15 102 28 97 9 -3 93 -49 186 -102z m1070 -769 c88 -75 194 -161 235
-191 41 -31 79 -59 83 -63 4 -4 -32 -38 -80 -77 -140 -110 -394 -303 -402
-303 -3 0 -7 173 -9 385 -2 212 1 385 5 385 4 0 80 -61 168 -136z"/>

<path d="M46493 19670 c-24 -5 -63 -18 -89 -29 -40 -18 -45 -23 -39 -43 16
-51 19 -53 98 -49 113 4 173 -26 209 -107 27 -60 17 -134 -22 -174 -26 -25
-27 -31 -18 -67 6 -22 25 -53 44 -72 l34 -33 0 32 c0 28 6 36 47 60 73 43 114
83 138 134 l22 48 26 -24 c55 -51 74 -125 53 -206 -8 -30 -13 -56 -12 -58 6
-5 137 39 198 67 35 15 78 40 96 56 l32 27 -44 28 c-24 16 -109 91 -189 167
-151 144 -214 189 -312 224 -67 23 -206 33 -272 19z"/>

<path d="M47278 19066 c-234 -155 -382 -191 -545 -135 -51 17 -53 17 -63 -1
-5 -10 -10 -37 -10 -60 0 -33 7 -48 39 -83 45 -48 168 -114 280 -147 129 -40
274 -10 404 83 84 60 112 94 159 193 42 90 47 133 21 156 -20 18 -136 78 -149
78 -5 0 -66 -38 -136 -84z"/>
</g>
<g transform="translate(0.000000,3984.000000) scale(0.100000,-0.100000)"
fill="#00000" stroke="none">
<path d="M1235 19510 l0 -6300 1798 0 1797 0 0 2556 0 2556 273 -5 c298 -5
350 -13 532 -77 254 -91 442 -229 605 -445 148 -198 279 -428 525 -930 84
-170 312 -632 508 -1025 195 -393 564 -1138 821 -1655 256 -517 470 -947 474
-955 8 -13 246 -15 2030 -18 l2021 -2 -38 82 c-42 92 -849 1797 -1011 2138
-56 118 -237 501 -402 850 -165 349 -316 664 -335 700 -178 323 -624 933 -875
1195 -146 154 -293 254 -563 384 -135 66 -461 201 -484 201 -6 0 -11 4 -11 8
0 5 26 15 58 21 89 20 374 107 511 157 350 127 590 254 855 453 589 443 1008
1054 1210 1761 172 603 195 1387 61 2055 -134 670 -453 1269 -906 1699 -494
471 -1071 704 -2029 820 -614 75 -666 76 -4250 76 l-3175 0 0 -6300z m5500
3750 c403 -29 698 -108 899 -240 141 -93 278 -263 350 -436 73 -174 100 -330
100 -569 0 -149 -4 -198 -23 -285 -84 -393 -341 -707 -669 -821 -106 -37 -517
-129 -807 -181 -115 -21 -153 -22 -937 -25 l-818 -4 0 1285 0 1286 883 0 c494
0 943 -5 1022 -10z"/>
<path d="M13760 19510 l0 -6300 4880 0 4880 0 0 1425 0 1425 -3090 0 -3090 0
2 1243 3 1242 2783 3 2782 2 0 1280 0 1280 -2782 2 -2783 3 -3 1003 -2 1002
3000 0 3000 0 0 1345 0 1345 -4790 0 -4790 0 0 -6300z"/>
<path d="M25598 19510 l-3 -6300 1793 0 1792 0 0 6300 0 6300 -1790 0 -1790 0
-2 -6300z"/>
<path d="M30930 24255 l0 -1555 1825 0 1825 0 0 -4745 0 -4745 1790 0 1790 0
0 4745 0 4745 1820 0 1820 0 2 1555 3 1555 -5437 0 -5438 0 0 -1555z"/>
</g>
</svg>
